<?xml version='1.0' encoding='utf-8'?>
<svg xmlns="http://www.w3.org/2000/svg" data-name="Layer 1" viewBox="0 0 1e3 500"> <defs> <style>.cls-1{fill:#273376;}.cls-2{fill:#fff;}.cls-3{fill:#ed2024;}</style> </defs> <polygon class="cls-1" points="225.94 334.44 0 447.42 0 334.44"/> <polygon class="cls-1" points="225.94 165.56 0 165.56 0 52.61"/> <polygon class="cls-1" points="105.19 0 416.67 0 416.67 155.75"/> <polygon class="cls-1" points="105.19 500 416.67 344.27 416.67 500"/> <polygon class="cls-1" points="583.33 344.27 894.81 500 583.33 500"/> <polygon class="cls-1" points="894.81 0 583.33 155.75 583.33 0"/> <polygon class="cls-1" points="1e3 52.61 1e3 165.56 774.06 165.56"/> <polygon class="cls-1" points="774.06 334.44 1e3 334.44 1e3 447.42"/> <polygon class="cls-2" points="1e3 447.42 1e3 500 894.81 500 500 302.61 394.81 250 0 52.61 0 0 105.19 0 500 197.42 605.19 250"/> <polygon class="cls-2" points="1e3 0 1e3 52.61 605.19 250 500 302.61 105.19 500 0 500 0 447.42 394.81 250 500 197.42 894.81 0"/> <polygon class="cls-2" points="448.93 301.07 448.93 500 416.67 500 416.67 334.44 0 334.44 0 301.07"/> <polygon class="cls-2" points="416.67 0 448.93 0 448.93 198.93 0 198.93 0 165.56 416.67 165.56"/> <polygon class="cls-2" points="1e3 301.07 1e3 334.44 583.33 334.44 583.33 500 551.08 500 551.08 301.07"/> <polygon class="cls-2" points="1e3 165.56 1e3 198.93 551.08 198.93 551.08 0 583.33 0 583.33 165.56"/> <polygon class="cls-3" points="331.94 165.56 265.81 165.56 0 32.66 0 0 0.81 0"/> <polygon class="cls-3" points="1e3 0 1e3 0.4 669.68 165.56 603.55 165.56 934.68 0"/> <polygon class="cls-3" points="1e3 467.34 1e3 500 999.89 500 668.07 334.44 734.19 334.44"/> <polygon class="cls-3" points="396.45 334.44 65.32 500 0 500 0 499.6 330.32 334.44"/> <polygon class="cls-3" points="1e3 198.93 1e3 301.07 551.08 301.07 551.08 500 448.93 500 448.93 301.07 0 301.07 0 198.93 448.93 198.93 448.93 0 551.08 0 551.08 198.93"/> </svg>